<svg width="50" height="51" viewBox="0 0 50 51" fill="none" xmlns="http://www.w3.org/2000/svg">
<g clip-path="url(#clip0_5_4205)">
<path d="M22.6287 19.0641C22.9789 19.2198 23.154 19.4921 23.154 19.8812V31.0875C23.154 31.4766 22.9789 31.7489 22.6287 31.9046C22.473 31.9824 22.3368 32.0213 22.2201 32.0213C22.0645 32.0213 21.8699 31.9435 21.6364 31.7879L17.8427 28.7528H14.7493C14.1267 28.7528 13.8154 28.4416 13.8154 27.819V23.1497C13.8154 22.5272 14.1267 22.2159 14.7493 22.2159H17.8427L21.6364 19.1225C21.7921 19.0058 21.9866 18.9474 22.2201 18.9474C22.3368 18.9474 22.473 18.9863 22.6287 19.0641ZM36.1695 25.4844C36.1695 29.0252 34.9049 32.0602 32.3757 34.5894C32.2201 34.7451 32.045 34.8229 31.8504 34.8229C31.6948 34.8229 31.5392 34.7451 31.3835 34.5894C31.0333 34.2781 31.0333 33.9474 31.3835 33.5972C33.6403 31.4182 34.7687 28.7139 34.7687 25.4844C34.7687 22.2548 33.6403 19.5505 31.3835 17.3715C31.0333 17.0213 31.0333 16.6906 31.3835 16.3793C31.7337 16.068 32.0645 16.068 32.3757 16.3793C34.9049 18.9085 36.1695 21.9435 36.1695 25.4844ZM29.8076 18.7723C31.5975 20.64 32.4925 22.8774 32.4925 25.4844C32.4925 28.0914 31.5975 30.3287 29.8076 32.1964C29.652 32.3521 29.4769 32.4299 29.2824 32.4299C29.1267 32.4299 28.9711 32.3521 28.8154 32.1964C28.4652 31.8462 28.4458 31.5155 28.7571 31.2042C30.3135 29.6478 31.0917 27.7412 31.0917 25.4844C31.0917 23.2275 30.3135 21.3209 28.7571 19.7645C28.4458 19.4532 28.4652 19.1225 28.8154 18.7723C29.1656 18.4221 29.4964 18.4221 29.8076 18.7723ZM26.831 21.1653C27.9983 22.4104 28.582 23.8501 28.582 25.4844C28.582 27.1186 27.9983 28.5583 26.831 29.8034C26.7143 29.9202 26.5392 29.9785 26.3057 29.9785C26.1111 29.9785 25.9555 29.9202 25.8388 29.8034C25.5275 29.4921 25.5275 29.1614 25.8388 28.8112C26.7337 27.9163 27.1812 26.8073 27.1812 25.4844C27.1812 24.1614 26.7337 23.0524 25.8388 22.1575C25.5275 21.8073 25.5275 21.4766 25.8388 21.1653C26.1501 20.854 26.4808 20.854 26.831 21.1653Z" fill="black"/>
</g>
<defs>
<clipPath id="clip0_5_4205">
<rect width="22.4531" height="30" fill="white" transform="matrix(1 0 0 -1 13.7656 40.4844)"/>
</clipPath>
</defs>
</svg>
